<?xml version="1.0" encoding="utf-8"?>
<!-- Generator: Adobe Illustrator 17.1.0, SVG Export Plug-In . SVG Version: 6.00 Build 0)  -->
<!DOCTYPE svg PUBLIC "-//W3C//DTD SVG 1.1//EN" "http://www.w3.org/Graphics/SVG/1.1/DTD/svg11.dtd">
<svg version="1.1" id="Capa_1" xmlns="http://www.w3.org/2000/svg" xmlns:xlink="http://www.w3.org/1999/xlink" x="0px" y="0px"
	 width="595.3px" height="841.9px" viewBox="0 0 595.3 841.9" enable-background="new 0 0 595.3 841.9" xml:space="preserve">
<g>
	<g>
		<path fill="#8B87BD" d="M210.7,376.1h-12.6v7.6h12.2v4.5h-12.2v10.5h12.6v4.5h-17.4v-31.5h17.4V376.1z"/>
		<path fill="#8B87BD" d="M231,371.7v17.4c0,2.5,0.4,4.3,1.2,5.4c1.2,1.7,2.9,2.5,5.1,2.5c2.2,0,3.9-0.8,5.1-2.5
			c0.8-1.1,1.2-2.9,1.2-5.4v-17.4h4.4v18.6c0,3-0.9,5.5-2.8,7.5c-2.1,2.2-4.7,3.3-7.8,3.3c-3.1,0-5.7-1.1-7.8-3.3
			c-1.9-2-2.8-4.5-2.8-7.5v-18.6H231z"/>
		<path fill="#8B87BD" d="M273.8,386.9l9,11.3h-5.4l-8.3-10.9h-0.8v10.9H264v-26.6h5.1c3.8,0,6.6,0.7,8.3,2c1.9,1.5,2.8,3.4,2.8,5.8
			c0,1.9-0.6,3.5-1.8,4.9C277.3,385.7,275.8,386.5,273.8,386.9z M268.4,383.9h1.4c4.1,0,6.2-1.5,6.2-4.4c0-2.7-2-4.1-6.1-4.1h-1.6
			V383.9z"/>
		<path fill="#8B87BD" d="M295.1,387.2c0-4.4,1.6-8.2,4.9-11.4c3.2-3.2,7.1-4.8,11.7-4.8c4.5,0,8.3,1.6,11.5,4.8
			c3.2,3.2,4.8,7.1,4.8,11.6c0,4.5-1.6,8.4-4.9,11.5c-3.2,3.2-7.2,4.7-11.8,4.7c-4.1,0-7.7-1.4-10.9-4.2
			C296.9,396.3,295.1,392.2,295.1,387.2z M299.9,387.2c0,3.5,1.2,6.3,3.5,8.6c2.3,2.2,5,3.4,8.1,3.4c3.3,0,6.1-1.1,8.4-3.4
			c2.3-2.3,3.4-5.1,3.4-8.4c0-3.4-1.1-6.2-3.4-8.4c-2.2-2.3-5-3.4-8.3-3.4c-3.3,0-6,1.1-8.3,3.4
			C301.1,381.1,299.9,383.9,299.9,387.2z"/>
		<path fill="#8B87BD" d="M348.8,390.3v12.8H344v-31.5h5.4c2.6,0,4.6,0.2,6,0.6c1.4,0.4,2.6,1.1,3.6,2.1c1.8,1.8,2.7,4,2.7,6.7
			c0,2.9-1,5.2-2.9,6.8s-4.5,2.5-7.8,2.5H348.8z M348.8,385.9h1.8c4.4,0,6.5-1.7,6.5-5c0-3.2-2.2-4.9-6.7-4.9h-1.6V385.9z"/>
		<path fill="#8B87BD" d="M392.8,395.4h-13.5l-3.5,7.6h-5.1l15.6-33.4l15,33.4h-5.2L392.8,395.4z M390.8,391l-4.7-10.7l-4.9,10.7
			H390.8z"/>
	</g>
	<polygon fill="#E7B142" points="232.3,456.3 233.3,459.6 236.7,459.6 234,461.6 235,464.8 232.3,462.8 229.5,464.8 230.6,461.6 
		227.8,459.6 231.2,459.6 	"/>
	<polygon fill="#E7B142" points="243.2,462.4 244.3,465.7 247.7,465.7 244.9,467.7 246,470.9 243.2,468.9 240.5,470.9 241.5,467.7 
		238.8,465.7 242.2,465.7 	"/>
	<polygon fill="#E7B142" points="280.3,456.3 279.2,459.6 275.8,459.6 278.6,461.6 277.5,464.8 280.3,462.8 283,464.8 282,461.6 
		284.7,459.6 281.3,459.6 	"/>
	<polygon fill="#E7B142" points="269.3,462.4 268.2,465.7 264.8,465.7 267.6,467.7 266.5,470.9 269.3,468.9 272.1,470.9 271,467.7 
		273.8,465.7 270.4,465.7 	"/>
	<polygon fill="#E7B142" points="256.8,464.8 257.9,468.1 261.3,468.1 258.5,470.1 259.6,473.3 256.8,471.3 254,473.3 255.1,470.1 
		252.3,468.1 255.7,468.1 	"/>
	<g>
		<path fill="#2F2B65" d="M210,414.3v37.8h-6.6v-37.8h-10.1V408h26.9v6.2H210z"/>
		<path fill="#2F2B65" d="M304.3,408.4v26.5c0,3.8,0.6,6.5,1.9,8.3c1.8,2.5,4.4,3.8,7.8,3.8c3.4,0,6-1.3,7.8-3.8
			c1.2-1.7,1.9-4.5,1.9-8.3v-26.5h6.6v28.3c0,4.6-1.4,8.5-4.3,11.5c-3.2,3.3-7.2,5-12,5c-4.7,0-8.7-1.7-11.9-5
			c-2.9-3-4.3-6.8-4.3-11.5v-28.3H304.3z"/>
		<path fill="#2F2B65" d="M355.7,433.6l13.6,18.8h-8.1l-12.6-18h-1.2v18h-6.6v-44h7.8c5.8,0,10,1.1,12.6,3.3
			c2.9,2.4,4.3,5.6,4.3,9.6c0,3.1-0.9,5.8-2.7,8C361,431.6,358.7,433,355.7,433.6z M347.5,428.6h2.1c6.3,0,9.4-2.4,9.4-7.2
			c0-4.5-3.1-6.8-9.2-6.8h-2.4V428.6z"/>
		<path fill="#2F2B65" d="M400.9,414.9l-5.4,3.2c-1-1.7-2-2.9-2.9-3.4c-1-0.6-2.2-0.9-3.7-0.9c-1.8,0-3.4,0.5-4.6,1.6
			c-1.2,1-1.8,2.3-1.8,3.9c0,2.1,1.6,3.9,4.8,5.2l4.4,1.8c3.6,1.4,6.2,3.2,7.8,5.3s2.5,4.6,2.5,7.7c0,4.1-1.3,7.4-4,10
			c-2.7,2.7-6.1,4-10.1,4c-3.8,0-7-1.1-9.5-3.4c-2.5-2.3-4-5.5-4.6-9.6l6.7-1.5c0.3,2.6,0.8,4.4,1.6,5.4c1.4,1.9,3.4,2.9,6,2.9
			c2.1,0,3.8-0.7,5.2-2.1c1.4-1.4,2.1-3.1,2.1-5.3c0-0.9-0.1-1.6-0.4-2.4c-0.2-0.7-0.6-1.4-1.1-2c-0.5-0.6-1.2-1.2-2-1.7
			c-0.8-0.5-1.7-1-2.9-1.5l-4.2-1.8c-6-2.5-9-6.3-9-11.2c0-3.3,1.3-6.1,3.8-8.3c2.5-2.2,5.7-3.4,9.4-3.4
			C394,407.5,398,410,400.9,414.9z"/>
	</g>
	<g>
		<path fill="#38984B" d="M268.1,434.8c8.4-2.5,13.7-9.4,14.3-20.7c0.5,1.8,2.6,17.6,2.6,19.2c0,0.5-0.7,1-1.1,1.2L268.1,434.8z"/>
		<path fill="#38984B" d="M291,416.5c0,0-0.2-1.6-2-1.6s-3.8,0-3.8,0l-0.7-2.2c0,0-0.8-2.4-4.5-2.6c-3.7-0.2-21.6-1.4-21.6-1.4
			s-2,0.1-5.9,0.7c-3.8,0.6-25.7,8.5-25.7,8.5s-2.8,0.9-2.8,2V438l2.5,1.2c-0.2-2.8,0.3-5.1,1.2-5.2c0.9-0.1,1.7,2.2,1.9,5
			c0,0.5,0,1.1,0,1.6l13.7,4.9l0.4,0.2c-0.1-0.5-0.1-0.9-0.1-1.4c-0.3-4,0.5-7.4,1.7-7.5c1.2-0.1,2.5,3.1,2.8,7.2
			c0.1,1.2,0.1,2.3,0,3.3l0.7,0.2l7.6,3.3c0,0,2,0.6,3.5,0.6s25.4-3.1,25.4-3.1s2-1.2,2-2.6c0-1.3-1-25.2-1.9-29.4
			c-0.6-1,3.2,0.8,3.2,0.8l0.9,5c0,0,0.4,1.2,1.4,0.6C292.2,421.9,291,416.5,291,416.5z M249.6,425.9c0,0-22.1,3.5-23,3.7
			c-1,0.1-0.7-1.2-0.7-1.2v-6.1c0-1,1.6-1.5,1.6-1.5s16.1-6.8,19.8-7.4c3.1-0.6,3.1,1.8,3.1,1.8s0.3,5.3,0.3,7.9
			C250.8,425.7,249.6,425.9,249.6,425.9z M286.4,433.3c0,1.8-2.3,2.6-2.3,2.6l-23.9,0.5c-1.2,0-1.7-0.4-1.8-1.2l-0.3-19.4
			c0,0,2.8,0,3.5,0c0.7,0,1.4,1.6,1.4,1.6s0.6,4.5,0.7,6c0.1,1.5,1.8,0.6,2,0c0.3-0.6,0.1-6.9-1.4-8.3s-6.2-0.8-6.2-0.8v-3.1
			c0-1.3,1.6-1.4,1.6-1.4s20.1,1.4,21.1,1.4c1,0.1,2.4,1.3,2.9,2.2C284.2,414.3,286.4,431.5,286.4,433.3z"/>
		
			<ellipse transform="matrix(0.9975 -7.108880e-02 7.108880e-02 0.9975 -30.9411 18.6195)" fill="#2F2B65" cx="246.1" cy="444" rx="1.4" ry="4.7"/>
		
			<ellipse transform="matrix(0.9975 -7.108880e-02 7.108880e-02 0.9975 -30.6399 17.3401)" fill="#2F2B65" cx="228.3" cy="439.1" rx="1" ry="3.2"/>
		<path fill="#8B87BD" d="M222,440.1l31.3,15.6c0,0,2.1,1.8,6.9,0.7c4.9-1.1,27.4-6,27.4-6l-26.7,2.8c0,0-3.4,0.7-7.3-0.7
			S222,440.1,222,440.1z"/>
	</g>
	<path fill="#FFFFFF" d="M260.6,442.3c0,0,21.7,1,25-1.8c1-0.2,0,2.3-0.6,2.7c-1.2,0.8-20.8,3-23.7,1.3S260.6,442.3,260.6,442.3z"/>
	<g>
		<path fill="#2F2B65" d="M260.5,457.8c-1.2,0.3-2.3,0.4-3.3,0.4c-2.7,0-4.2-0.9-4.7-1.3l-0.5-0.3c-5.5-0.9-10.4-3.4-14.2-7.1
			l-9-4.5c5.3,9.7,15.6,16.3,27.4,16.3c7.5,0,14.4-2.7,19.8-7.1C269.8,455.7,263,457.2,260.5,457.8z"/>
		<path fill="#2F2B65" d="M235.7,413.3c4.9-5.9,12.3-9.7,20.6-9.7c5.5,0,10.7,1.7,15,4.6c2.9,0.2,5.6,0.4,7.4,0.5
			c-5.7-5.9-13.6-9.5-22.4-9.5c-12,0-22.3,6.7-27.6,16.6C230.4,415.1,232.9,414.2,235.7,413.3z"/>
	</g>
</g>
</svg>
