<?xml version="1.0" encoding="utf-8"?>
<!-- Generator: Adobe Illustrator 17.1.0, SVG Export Plug-In . SVG Version: 6.00 Build 0)  -->
<!DOCTYPE svg PUBLIC "-//W3C//DTD SVG 1.1//EN" "http://www.w3.org/Graphics/SVG/1.1/DTD/svg11.dtd">
<svg version="1.1" id="Capa_1" xmlns="http://www.w3.org/2000/svg" xmlns:xlink="http://www.w3.org/1999/xlink" x="0px" y="0px"
	 width="208px" height="104px" viewBox="0 369 208 104" enable-background="new 0 369 208 104" xml:space="preserve">
<g>
	<g>
		<path fill="#8B87BD" d="M17.3,375.8H4.8v7.6h12.2v4.5H4.8v10.5h12.6v4.5H0v-31.4h17.3V375.8z"/>
		<path fill="#8B87BD" d="M37.6,371.4v17.3c0,2.5,0.4,4.3,1.2,5.4c1.2,1.7,2.9,2.5,5.1,2.5c2.2,0,3.9-0.8,5.1-2.5
			c0.8-1.1,1.2-2.9,1.2-5.4v-17.3h4.4v18.5c0,3-0.9,5.5-2.8,7.5c-2.1,2.2-4.7,3.3-7.8,3.3c-3.1,0-5.7-1.1-7.8-3.3
			c-1.9-2-2.8-4.5-2.8-7.5v-18.5H37.6z"/>
		<path fill="#8B87BD" d="M80.2,386.5l9,11.3h-5.4l-8.3-10.9h-0.8v10.9h-4.3v-26.5h5.1c3.8,0,6.6,0.7,8.3,2c1.9,1.5,2.8,3.4,2.8,5.8
			c0,1.9-0.6,3.5-1.8,4.9C83.7,385.3,82.2,386.1,80.2,386.5z M74.8,383.5h1.4c4.1,0,6.2-1.5,6.2-4.4c0-2.7-2-4.1-6.1-4.1h-1.6
			L74.8,383.5L74.8,383.5z"/>
		<path fill="#8B87BD" d="M101.5,386.8c0-4.4,1.6-8.2,4.9-11.4c3.2-3.2,7.1-4.8,11.7-4.8c4.5,0,8.3,1.6,11.5,4.8
			c3.2,3.2,4.8,7.1,4.8,11.6c0,4.5-1.6,8.4-4.9,11.5c-3.2,3.2-7.2,4.7-11.8,4.7c-4.1,0-7.7-1.4-10.9-4.2
			C103.3,395.9,101.5,391.8,101.5,386.8z M106.2,386.8c0,3.5,1.2,6.3,3.5,8.6c2.3,2.2,5,3.4,8.1,3.4c3.3,0,6.1-1.1,8.4-3.4
			c2.3-2.3,3.4-5.1,3.4-8.4c0-3.4-1.1-6.2-3.4-8.4c-2.2-2.3-5-3.4-8.3-3.4c-3.3,0-6,1.1-8.3,3.4
			C107.4,380.7,106.2,383.5,106.2,386.8z"/>
		<path fill="#8B87BD" d="M155,389.9v12.8h-4.8v-31.4h5.4c2.6,0,4.6,0.2,6,0.6s2.6,1.1,3.6,2.1c1.8,1.8,2.7,4,2.7,6.7
			c0,2.9-1,5.2-2.9,6.8c-1.9,1.6-4.5,2.5-7.8,2.5H155z M155,385.5h1.8c4.4,0,6.5-1.7,6.5-5c0-3.2-2.2-4.9-6.7-4.9H155L155,385.5
			L155,385.5z"/>
		<path fill="#8B87BD" d="M198.8,395h-13.5l-3.5,7.6h-5.1l15.5-33.3l14.9,33.3h-5.2L198.8,395z M196.8,390.6l-4.7-10.7l-4.9,10.7
			H196.8z"/>
	</g>
	<polygon fill="#E7B142" points="38.9,455.7 39.9,459 43.3,459 40.6,461 41.6,464.2 38.9,462.2 36.1,464.2 37.2,461 34.4,459 
		37.8,459 	"/>
	<polygon fill="#E7B142" points="49.7,461.8 50.8,465.1 54.2,465.1 51.4,467 52.5,470.2 49.7,468.2 47,470.2 48,467 45.3,465.1 
		48.7,465.1 	"/>
	<polygon fill="#E7B142" points="86.7,455.7 85.6,459 82.2,459 85,461 83.9,464.2 86.7,462.2 89.4,464.2 88.4,461 91.1,459 
		87.7,459 	"/>
	<polygon fill="#E7B142" points="75.7,461.8 74.6,465.1 71.3,465.1 74.1,467 73,470.2 75.7,468.2 78.5,470.2 77.4,467 80.2,465.1 
		76.8,465.1 	"/>
	<polygon fill="#E7B142" points="63.3,464.2 64.4,467.4 67.8,467.4 65,469.4 66.1,472.6 63.3,470.6 60.5,472.6 61.6,469.4 
		58.8,467.4 62.2,467.4 	"/>
	<g>
		<path fill="#2F2B65" d="M16.6,413.8v37.7h-6.6v-37.7H0v-6.3h26.8v6.2L16.6,413.8L16.6,413.8z"/>
		<path fill="#2F2B65" d="M110.6,407.9v26.4c0,3.8,0.6,6.5,1.9,8.3c1.8,2.5,4.4,3.8,7.8,3.8c3.4,0,6-1.3,7.8-3.8
			c1.2-1.7,1.9-4.5,1.9-8.3v-26.4h6.6v28.2c0,4.6-1.4,8.5-4.3,11.5c-3.2,3.3-7.2,5-12,5c-4.7,0-8.7-1.7-11.9-5
			c-2.9-3-4.3-6.8-4.3-11.5v-28.2H110.6z"/>
		<path fill="#2F2B65" d="M161.9,433.1l13.6,18.7h-8.1l-12.6-17.9h-1.2v17.9H147v-43.9h7.8c5.8,0,10,1.1,12.6,3.3
			c2.9,2.4,4.3,5.6,4.3,9.6c0,3.1-0.9,5.8-2.7,8C167.1,431.1,164.8,432.5,161.9,433.1z M153.7,428.1h2.1c6.3,0,9.4-2.4,9.4-7.2
			c0-4.5-3.1-6.8-9.2-6.8h-2.4L153.7,428.1L153.7,428.1z"/>
		<path fill="#2F2B65" d="M206.9,414.4l-5.4,3.2c-1-1.7-2-2.9-2.9-3.4c-1-0.6-2.2-0.9-3.7-0.9c-1.8,0-3.4,0.5-4.6,1.6
			c-1.2,1-1.8,2.3-1.8,3.9c0,2.1,1.6,3.9,4.8,5.2l4.4,1.8c3.6,1.4,6.2,3.2,7.8,5.3c1.6,2.1,2.5,4.6,2.5,7.7c0,4.1-1.3,7.4-4,10
			c-2.7,2.7-6.1,4-10.1,4c-3.8,0-7-1.1-9.5-3.4c-2.5-2.3-4-5.5-4.6-9.6l6.7-1.5c0.3,2.6,0.8,4.4,1.6,5.4c1.4,1.9,3.4,2.9,6,2.9
			c2.1,0,3.8-0.7,5.2-2.1c1.4-1.4,2.1-3.1,2.1-5.3c0-0.9-0.1-1.6-0.4-2.4c-0.2-0.7-0.6-1.4-1.1-2c-0.5-0.6-1.2-1.2-2-1.7
			s-1.7-1-2.9-1.5l-4.2-1.8c-6-2.5-9-6.3-9-11.2c0-3.3,1.3-6.1,3.8-8.3c2.5-2.2,5.7-3.4,9.4-3.4C200,407,204,409.5,206.9,414.4z"/>
	</g>
	<path fill="#38984B" d="M74.5,434.3c8.4-2.5,13.7-9.4,14.3-20.6c0.5,1.8,2.6,17.5,2.6,19.1c0,0.5-0.7,1-1.1,1.2L74.5,434.3z"/>
	
		<ellipse transform="matrix(-7.108665e-02 -0.9975 0.9975 -7.108665e-02 -385.9458 527.4583)" fill="#2F2B65" cx="52.6" cy="443.4" rx="4.7" ry="1.4"/>
	
		<ellipse transform="matrix(-7.108665e-02 -0.9975 0.9975 -7.108665e-02 -400.077 504.5276)" fill="#2F2B65" cx="34.9" cy="438.6" rx="3.2" ry="1"/>
	<path fill="#8B87BD" d="M28.6,439.5l31.2,15.5c0,0,2.1,1.8,6.9,0.7c4.9-1.1,27.3-6,27.3-6l-26.6,2.8c0,0-3.4,0.7-7.3-0.7
		S28.6,439.5,28.6,439.5z"/>
	<path fill="#38984B" d="M97.4,416c0,0-0.2-1.6-2-1.6c-1.8,0-3.8,0-3.8,0l-0.7-2.2c0,0-0.8-2.4-4.5-2.6c-3.7-0.2-21.5-1.4-21.5-1.4
		s-2,0.1-5.9,0.7c-3.8,0.6-25.6,8.5-25.6,8.5s-2.8,0.9-2.8,2v18l2.5,1.2c-0.2-2.8,0.3-5.1,1.2-5.2c0.9-0.1,1.7,2.2,1.9,5
		c0,0.5,0,1.1,0,1.6l13.7,4.9l0.4,0.2c-0.1-0.5-0.1-0.9-0.1-1.4c-0.3-4,0.5-7.4,1.7-7.5c1.2-0.1,2.5,3.1,2.8,7.2
		c0.1,1.2,0.1,2.3,0,3.3l0.7,0.2l7.6,3.3c0,0,2,0.6,3.5,0.6c1.5,0,25.3-3.1,25.3-3.1s2-1.2,2-2.6c0-1.3-1-25.1-1.9-29.3
		c-0.6-1,3.2,0.8,3.2,0.8l0.9,5c0,0,0.4,1.2,1.4,0.6C98.6,421.4,97.4,416,97.4,416z M56.1,425.4c0,0-22,3.5-22.9,3.7
		c-1,0.1-0.7-1.2-0.7-1.2v-6.1c0-1,1.6-1.5,1.6-1.5s16-6.8,19.7-7.4c3.1-0.6,3.1,1.8,3.1,1.8s0.3,5.3,0.3,7.9
		C57.3,425.2,56.1,425.4,56.1,425.4z M91.4,442.6c-1.2,0.8-20.7,3-23.6,1.3s-0.7-2.2-0.7-2.2s21.6,1,24.9-1.8
		C93,439.7,92,442.2,91.4,442.6z M92.8,432.8c0,1.8-2.3,2.6-2.3,2.6l-23.8,0.5c-1.2,0-1.7-0.4-1.8-1.2l-0.3-19.3c0,0,2.8,0,3.5,0
		s1.4,1.6,1.4,1.6s0.6,4.5,0.7,6c0.1,1.5,1.8,0.6,2,0c0.3-0.6,0.1-6.9-1.4-8.3c-1.5-1.4-6.2-0.8-6.2-0.8v-3.1c0-1.3,1.6-1.4,1.6-1.4
		s20,1.4,21,1.4c1,0.1,2.4,1.3,2.9,2.2C90.6,413.8,92.8,431,92.8,432.8z"/>
	<g>
		<path fill="#2F2B65" d="M67,457.2c-1.2,0.3-2.3,0.4-3.3,0.4c-2.7,0-4.2-0.9-4.7-1.3l-0.5-0.3c-5.5-0.9-10.4-3.4-14.2-7.1l-9-4.5
			c5.3,9.7,15.5,16.2,27.3,16.2c7.5,0,14.4-2.7,19.7-7.1C76.2,455.1,69.5,456.6,67,457.2z"/>
		<path fill="#2F2B65" d="M42.3,412.8c4.9-5.9,12.3-9.7,20.5-9.7c5.5,0,10.7,1.7,14.9,4.6c2.9,0.2,5.6,0.4,7.4,0.5
			c-5.7-5.9-13.6-9.5-22.3-9.5c-12,0-22.2,6.7-27.5,16.5C37,414.6,39.5,413.7,42.3,412.8z"/>
	</g>
</g>
</svg>
