<?xml version="1.0" encoding="utf-8"?>
<!-- Generator: Adobe Illustrator 17.1.0, SVG Export Plug-In . SVG Version: 6.00 Build 0)  -->
<!DOCTYPE svg PUBLIC "-//W3C//DTD SVG 1.1//EN" "http://www.w3.org/Graphics/SVG/1.1/DTD/svg11.dtd">
<svg version="1.1" id="Capa_1" xmlns="http://www.w3.org/2000/svg" xmlns:xlink="http://www.w3.org/1999/xlink" x="0px" y="0px"
	 width="70px" height="75px" viewBox="262.6 383.5 70 75" enable-background="new 262.6 383.5 70 75" xml:space="preserve">
<g>
	<polygon fill="#E7B142" points="273,441.1 274.1,444.4 277.5,444.4 274.7,446.4 275.8,449.7 273,447.7 270.3,449.7 271.3,446.4 
		268.6,444.4 272,444.4 	"/>
	<polygon fill="#E7B142" points="284.1,447.2 285.1,450.6 288.5,450.6 285.8,452.6 286.8,455.8 284.1,453.8 281.3,455.8 
		282.4,452.6 279.5,450.6 283,450.6 	"/>
	<polygon fill="#E7B142" points="321.3,441.1 320.3,444.4 316.8,444.4 319.6,446.4 318.5,449.7 321.3,447.7 324.1,449.7 323,446.4 
		325.8,444.4 322.4,444.4 	"/>
	<polygon fill="#E7B142" points="310.2,447.2 309.2,450.6 305.8,450.6 308.5,452.6 307.5,455.8 310.2,453.8 313,455.8 311.9,452.6 
		314.7,450.6 311.3,450.6 	"/>
	<polygon fill="#E7B142" points="297.6,449.7 298.8,453 302.2,453 299.4,455 300.5,458.2 297.6,456.2 294.9,458.2 295.9,455 
		293.2,453 296.6,453 	"/>
	<path fill="#38984B" d="M309.1,419.5c8.4-2.5,13.8-9.5,14.4-20.8c0.5,1.8,2.6,17.7,2.6,19.3c0,0.5-0.7,1-1.1,1.2L309.1,419.5z"/>
	
		<ellipse transform="matrix(-7.108665e-02 -0.9975 0.9975 -7.108665e-02 -120.2728 745.5029)" fill="#2F2B65" cx="287" cy="428.8" rx="4.7" ry="1.4"/>
	
		<ellipse transform="matrix(-7.108665e-02 -0.9975 0.9975 -7.108665e-02 -134.6467 722.272)" fill="#2F2B65" cx="269" cy="423.8" rx="3.2" ry="1"/>
	<path fill="#8B87BD" d="M262.6,424.8l31.5,15.7c0,0,2.1,1.8,6.9,0.7c4.8-1.1,27.6-6,27.6-6l-26.9,2.8c0,0-3.4,0.7-7.3-0.7
		C290.5,435.9,262.6,424.8,262.6,424.8z"/>
	<path fill="#38984B" d="M332.1,401.1c0,0-0.2-1.6-2-1.6c-1.8,0-3.8,0-3.8,0l-0.7-2.2c0,0-0.8-2.4-4.5-2.6
		c-3.7-0.2-21.7-1.4-21.7-1.4s-2,0.1-5.9,0.7c-3.8,0.6-25.8,8.5-25.8,8.5s-2.8,0.9-2.8,2v18.2l2.5,1.2c-0.2-2.8,0.3-5.1,1.2-5.2
		c0.9-0.1,1.7,2.2,1.9,5c0,0.5,0,1.1,0,1.6l13.8,4.9l0.4,0.2c-0.1-0.5-0.1-0.9-0.1-1.4c-0.3-4,0.5-7.4,1.7-7.5
		c1.2-0.1,2.5,3.1,2.8,7.2c0.1,1.2,0.1,2.3,0,3.3l0.7,0.2l7.6,3.3c0,0,2,0.6,3.5,0.6s25.5-3.1,25.5-3.1s2-1.2,2-2.6
		c0-1.3-1-25.3-1.9-29.6c-0.6-1,3.2,0.8,3.2,0.8l0.9,5c0,0,0.4,1.2,1.4,0.6C333.3,406.5,332.1,401.1,332.1,401.1z M290.4,410.5
		c0,0-22.2,3.5-23.1,3.7c-1,0.1-0.7-1.2-0.7-1.2v-6.1c0-1,1.6-1.5,1.6-1.5s16.2-6.8,19.9-7.4c3.1-0.6,3.1,1.8,3.1,1.8
		s0.3,5.3,0.3,7.9C291.7,410.3,290.4,410.5,290.4,410.5z M326,427.9c-1.2,0.8-20.9,3-23.8,1.3s-0.7-2.2-0.7-2.2s21.8,1,25.1-1.8
		C327.6,425,326.6,427.5,326,427.9z M327.4,418c0,1.8-2.3,2.6-2.3,2.6l-24,0.5c-1.2,0-1.7-0.4-1.8-1.2l-0.3-19.5c0,0,2.8,0,3.5,0
		s1.4,1.6,1.4,1.6s0.6,4.5,0.7,6c0.1,1.5,1.8,0.6,2,0c0.3-0.6,0.1-6.9-1.4-8.3c-1.5-1.4-6.2-0.8-6.2-0.8v-3.1c0-1.3,1.6-1.4,1.6-1.4
		s20.2,1.4,21.2,1.4c1,0.1,2.4,1.3,2.9,2.2C325.2,398.9,327.4,416.2,327.4,418z"/>
	<g>
		<path fill="#2F2B65" d="M301.5,442.6c-1.2,0.3-2.3,0.4-3.3,0.4c-2.7,0-4.2-0.9-4.7-1.3l-0.5-0.3c-5.5-0.9-10.5-3.4-14.3-7.1
			l-9.1-4.5c5.3,9.8,15.7,16.4,27.6,16.4c7.5,0,14.5-2.7,19.9-7.1C310.7,440.5,303.9,442,301.5,442.6z"/>
		<path fill="#2F2B65" d="M276.4,397.9c4.9-5.9,12.4-9.8,20.7-9.8c5.5,0,10.8,1.7,15.1,4.6c2.9,0.2,5.6,0.4,7.4,0.5
			c-5.7-5.9-13.7-9.6-22.5-9.6c-12.1,0-22.4,6.7-27.8,16.7C271.1,399.7,273.6,398.8,276.4,397.9z"/>
	</g>
</g>
</svg>
